# xmcd
#
# Track frame offsets:
# 150
# 15843
# 31727
# 48472
#
# Disc length: 987 seconds
#
# Revision: 1
# Processed by: cddbd v1.5.2PL0 Copyright (c) Steve Scherf et al.
# Submitted via: CedeCatalogueitor 2.6.0.6 http://personales.ya.com/cdcatalogueitor
#
DISCID=1f03d904
DTITLE=Infadels - A Million Pieces
DYEAR=1900
DGENRE=
TTITLE0=A Million Pieces
TTITLE1=Shanghai Melissa
TTITLE2=Change My Colours
TTITLE3=Circus Of The Mad (Orb Remix)
EXTD=
EXTT0=
EXTT1=
EXTT2=
EXTT3=
PLAYORDER=
